# Blender 3.6.4
# www.blender.org
mtllib MaviDaire.mtl
o mavidaire
v 0.000000 0.000000 -0.600000
v -0.029441 0.000000 -0.599277
v -0.058810 0.000000 -0.597111
v -0.088038 0.000000 -0.593506
v -0.117054 0.000000 -0.588471
v -0.145788 0.000000 -0.582019
v -0.174171 0.000000 -0.574164
v -0.202134 0.000000 -0.564926
v -0.229610 0.000000 -0.554328
v -0.256533 0.000000 -0.542394
v -0.282838 0.000000 -0.529153
v -0.308462 0.000000 -0.514637
v -0.333342 0.000000 -0.498882
v -0.357420 0.000000 -0.481925
v -0.380636 0.000000 -0.463806
v -0.402935 0.000000 -0.444571
v -0.424264 0.000000 -0.424264
v -0.444571 0.000000 -0.402935
v -0.463806 0.000000 -0.380636
v -0.481925 0.000000 -0.357420
v -0.498882 0.000000 -0.333342
v -0.514637 0.000000 -0.308462
v -0.529153 0.000000 -0.282838
v -0.542394 0.000000 -0.256533
v -0.554328 0.000000 -0.229610
v -0.564926 0.000000 -0.202134
v -0.574164 0.000000 -0.174171
v -0.582019 0.000000 -0.145788
v -0.588471 0.000000 -0.117054
v -0.593506 0.000000 -0.088038
v -0.597111 0.000000 -0.058810
v -0.599277 0.000000 -0.029441
v -0.600000 0.000000 -0.000000
v -0.599277 0.000000 0.029441
v -0.597111 0.000000 0.058810
v -0.593506 0.000000 0.088038
v -0.588471 0.000000 0.117054
v -0.582019 0.000000 0.145788
v -0.574164 0.000000 0.174171
v -0.564926 0.000000 0.202134
v -0.554328 0.000000 0.229610
v -0.542394 0.000000 0.256533
v -0.529153 0.000000 0.282838
v -0.514637 0.000000 0.308462
v -0.498882 0.000000 0.333342
v -0.481925 0.000000 0.357420
v -0.463806 0.000000 0.380636
v -0.444571 0.000000 0.402935
v -0.424264 0.000000 0.424264
v -0.402935 0.000000 0.444571
v -0.380636 0.000000 0.463806
v -0.357420 0.000000 0.481925
v -0.333342 0.000000 0.498882
v -0.308462 0.000000 0.514637
v -0.282838 0.000000 0.529153
v -0.256533 0.000000 0.542394
v -0.229610 0.000000 0.554328
v -0.202134 0.000000 0.564926
v -0.174171 0.000000 0.574164
v -0.145788 0.000000 0.582019
v -0.117054 0.000000 0.588471
v -0.088038 0.000000 0.593506
v -0.058810 0.000000 0.597111
v -0.029441 0.000000 0.599277
v 0.000000 0.000000 0.600000
v 0.029441 0.000000 0.599277
v 0.058810 0.000000 0.597111
v 0.088038 0.000000 0.593506
v 0.117054 0.000000 0.588471
v 0.145788 0.000000 0.582019
v 0.174171 0.000000 0.574164
v 0.202134 0.000000 0.564926
v 0.229610 0.000000 0.554328
v 0.256533 0.000000 0.542394
v 0.282838 0.000000 0.529153
v 0.308462 0.000000 0.514637
v 0.333342 0.000000 0.498882
v 0.357420 0.000000 0.481925
v 0.380636 0.000000 0.463806
v 0.402935 0.000000 0.444571
v 0.424264 0.000000 0.424264
v 0.444571 0.000000 0.402935
v 0.463806 0.000000 0.380636
v 0.481925 0.000000 0.357420
v 0.498882 0.000000 0.333342
v 0.514637 0.000000 0.308462
v 0.529153 0.000000 0.282838
v 0.542394 0.000000 0.256533
v 0.554328 0.000000 0.229610
v 0.564926 0.000000 0.202134
v 0.574164 0.000000 0.174171
v 0.582019 0.000000 0.145788
v 0.588471 0.000000 0.117054
v 0.593506 0.000000 0.088038
v 0.597111 0.000000 0.058810
v 0.599277 0.000000 0.029441
v 0.600000 0.000000 -0.000000
v 0.599277 0.000000 -0.029441
v 0.597111 0.000000 -0.058810
v 0.593506 0.000000 -0.088038
v 0.588471 0.000000 -0.117054
v 0.582019 0.000000 -0.145788
v 0.574164 0.000000 -0.174171
v 0.564926 0.000000 -0.202134
v 0.554328 0.000000 -0.229610
v 0.542394 0.000000 -0.256533
v 0.529153 0.000000 -0.282838
v 0.514637 0.000000 -0.308462
v 0.498882 0.000000 -0.333342
v 0.481925 0.000000 -0.357420
v 0.463806 0.000000 -0.380636
v 0.444571 0.000000 -0.402935
v 0.424264 0.000000 -0.424264
v 0.402935 0.000000 -0.444571
v 0.380636 0.000000 -0.463806
v 0.357420 0.000000 -0.481925
v 0.333342 0.000000 -0.498882
v 0.308462 0.000000 -0.514637
v 0.282838 0.000000 -0.529153
v 0.256533 0.000000 -0.542394
v 0.229610 0.000000 -0.554328
v 0.202134 0.000000 -0.564926
v 0.174171 0.000000 -0.574164
v 0.145788 0.000000 -0.582019
v 0.117054 0.000000 -0.588471
v 0.088038 0.000000 -0.593506
v 0.058810 0.000000 -0.597111
v 0.029441 0.000000 -0.599277
v 0.000000 0.002000 -0.600000
v -0.029441 0.002000 -0.599277
v -0.058810 0.002000 -0.597111
v -0.088038 0.002000 -0.593506
v -0.117054 0.002000 -0.588471
v -0.145788 0.002000 -0.582019
v -0.174171 0.002000 -0.574164
v -0.202134 0.002000 -0.564926
v -0.229610 0.002000 -0.554328
v -0.256533 0.002000 -0.542394
v -0.282838 0.002000 -0.529153
v -0.308462 0.002000 -0.514637
v -0.333342 0.002000 -0.498882
v -0.357420 0.002000 -0.481925
v -0.380636 0.002000 -0.463806
v -0.402935 0.002000 -0.444571
v -0.424264 0.002000 -0.424264
v -0.444571 0.002000 -0.402935
v -0.463806 0.002000 -0.380636
v -0.481925 0.002000 -0.357420
v -0.498882 0.002000 -0.333342
v -0.514637 0.002000 -0.308462
v -0.529153 0.002000 -0.282838
v -0.542394 0.002000 -0.256533
v -0.554328 0.002000 -0.229610
v -0.564926 0.002000 -0.202134
v -0.574164 0.002000 -0.174171
v -0.582019 0.002000 -0.145788
v -0.588471 0.002000 -0.117054
v -0.593506 0.002000 -0.088038
v -0.597111 0.002000 -0.058810
v -0.599277 0.002000 -0.029441
v -0.600000 0.002000 -0.000000
v -0.599277 0.002000 0.029441
v -0.597111 0.002000 0.058810
v -0.593506 0.002000 0.088038
v -0.588471 0.002000 0.117054
v -0.582019 0.002000 0.145788
v -0.574164 0.002000 0.174171
v -0.564926 0.002000 0.202134
v -0.554328 0.002000 0.229610
v -0.542394 0.002000 0.256533
v -0.529153 0.002000 0.282838
v -0.514637 0.002000 0.308462
v -0.498882 0.002000 0.333342
v -0.481925 0.002000 0.357420
v -0.463806 0.002000 0.380636
v -0.444571 0.002000 0.402935
v -0.424264 0.002000 0.424264
v -0.402935 0.002000 0.444571
v -0.380636 0.002000 0.463806
v -0.357420 0.002000 0.481925
v -0.333342 0.002000 0.498882
v -0.308462 0.002000 0.514637
v -0.282838 0.002000 0.529153
v -0.256533 0.002000 0.542394
v -0.229610 0.002000 0.554328
v -0.202134 0.002000 0.564926
v -0.174171 0.002000 0.574164
v -0.145788 0.002000 0.582019
v -0.117054 0.002000 0.588471
v -0.088038 0.002000 0.593506
v -0.058810 0.002000 0.597111
v -0.029441 0.002000 0.599277
v 0.000000 0.002000 0.600000
v 0.029441 0.002000 0.599277
v 0.058810 0.002000 0.597111
v 0.088038 0.002000 0.593506
v 0.117054 0.002000 0.588471
v 0.145788 0.002000 0.582019
v 0.174171 0.002000 0.574164
v 0.202134 0.002000 0.564926
v 0.229610 0.002000 0.554328
v 0.256533 0.002000 0.542394
v 0.282838 0.002000 0.529153
v 0.308462 0.002000 0.514637
v 0.333342 0.002000 0.498882
v 0.357420 0.002000 0.481925
v 0.380636 0.002000 0.463806
v 0.402935 0.002000 0.444571
v 0.424264 0.002000 0.424264
v 0.444571 0.002000 0.402935
v 0.463806 0.002000 0.380636
v 0.481925 0.002000 0.357420
v 0.498882 0.002000 0.333342
v 0.514637 0.002000 0.308462
v 0.529153 0.002000 0.282838
v 0.542394 0.002000 0.256533
v 0.554328 0.002000 0.229610
v 0.564926 0.002000 0.202134
v 0.574164 0.002000 0.174171
v 0.582019 0.002000 0.145788
v 0.588471 0.002000 0.117054
v 0.593506 0.002000 0.088038
v 0.597111 0.002000 0.058810
v 0.599277 0.002000 0.029441
v 0.600000 0.002000 -0.000000
v 0.599277 0.002000 -0.029441
v 0.597111 0.002000 -0.058810
v 0.593506 0.002000 -0.088038
v 0.588471 0.002000 -0.117054
v 0.582019 0.002000 -0.145788
v 0.574164 0.002000 -0.174171
v 0.564926 0.002000 -0.202134
v 0.554328 0.002000 -0.229610
v 0.542394 0.002000 -0.256533
v 0.529153 0.002000 -0.282838
v 0.514637 0.002000 -0.308462
v 0.498882 0.002000 -0.333342
v 0.481925 0.002000 -0.357420
v 0.463806 0.002000 -0.380636
v 0.444571 0.002000 -0.402935
v 0.424264 0.002000 -0.424264
v 0.402935 0.002000 -0.444571
v 0.380636 0.002000 -0.463806
v 0.357420 0.002000 -0.481925
v 0.333342 0.002000 -0.498882
v 0.308462 0.002000 -0.514637
v 0.282838 0.002000 -0.529153
v 0.256533 0.002000 -0.542394
v 0.229610 0.002000 -0.554328
v 0.202134 0.002000 -0.564926
v 0.174171 0.002000 -0.574164
v 0.145788 0.002000 -0.582019
v 0.117054 0.002000 -0.588471
v 0.088038 0.002000 -0.593506
v 0.058810 0.002000 -0.597111
v 0.029441 0.002000 -0.599277
vn -0.0000 -1.0000 -0.0000
vn -0.0000 1.0000 -0.0000
vn 0.8449 -0.0000 0.5350
vn -0.9973 -0.0000 0.0736
vn 0.8701 -0.0000 0.4929
vn -0.9925 -0.0000 0.1224
vn 0.8932 -0.0000 0.4496
vn -0.9853 -0.0000 0.1710
vn 0.9142 -0.0000 0.4052
vn -0.9757 -0.0000 0.2191
vn 0.9330 -0.0000 0.3599
vn -0.9638 -0.0000 0.2667
vn 0.9495 -0.0000 0.3137
vn -0.9495 -0.0000 0.3137
vn 0.9638 -0.0000 0.2667
vn -0.9330 -0.0000 0.3599
vn 0.9757 -0.0000 0.2191
vn -0.9142 -0.0000 0.4052
vn 0.9853 -0.0000 0.1710
vn -0.8932 -0.0000 0.4496
vn 0.9925 -0.0000 0.1224
vn -0.8701 -0.0000 0.4929
vn 0.9973 -0.0000 0.0736
vn -0.8449 -0.0000 0.5350
vn 0.9997 -0.0000 0.0245
vn -0.8176 -0.0000 0.5758
vn 0.9997 -0.0000 -0.0245
vn -0.7883 -0.0000 0.6152
vn 0.9973 -0.0000 -0.0736
vn -0.7572 -0.0000 0.6532
vn 0.9925 -0.0000 -0.1224
vn -0.7242 -0.0000 0.6895
vn 0.9853 -0.0000 -0.1710
vn -0.6895 -0.0000 0.7242
vn 0.9757 -0.0000 -0.2191
vn -0.6532 -0.0000 0.7572
vn 0.9638 -0.0000 -0.2667
vn -0.6152 -0.0000 0.7883
vn 0.9495 -0.0000 -0.3137
vn -0.5758 -0.0000 0.8176
vn -0.0245 -0.0000 -0.9997
vn 0.9330 -0.0000 -0.3599
vn -0.5350 -0.0000 0.8449
vn -0.0736 -0.0000 -0.9973
vn 0.9142 -0.0000 -0.4052
vn -0.4929 -0.0000 0.8701
vn -0.1224 -0.0000 -0.9925
vn 0.8932 -0.0000 -0.4496
vn -0.4496 -0.0000 0.8932
vn -0.1710 -0.0000 -0.9853
vn 0.8701 -0.0000 -0.4929
vn -0.4052 -0.0000 0.9142
vn -0.2191 -0.0000 -0.9757
vn 0.8449 -0.0000 -0.5350
vn -0.3599 -0.0000 0.9330
vn -0.2667 -0.0000 -0.9638
vn 0.8176 -0.0000 -0.5758
vn -0.3137 -0.0000 0.9495
vn -0.3137 -0.0000 -0.9495
vn 0.7883 -0.0000 -0.6152
vn -0.2667 -0.0000 0.9638
vn -0.3599 -0.0000 -0.9330
vn 0.7572 -0.0000 -0.6532
vn -0.2191 -0.0000 0.9757
vn -0.4052 -0.0000 -0.9142
vn 0.7242 -0.0000 -0.6895
vn -0.1710 -0.0000 0.9853
vn -0.4496 -0.0000 -0.8932
vn 0.6895 -0.0000 -0.7242
vn -0.1224 -0.0000 0.9925
vn -0.4929 -0.0000 -0.8701
vn 0.6532 -0.0000 -0.7572
vn -0.0736 -0.0000 0.9973
vn -0.5350 -0.0000 -0.8449
vn 0.6152 -0.0000 -0.7883
vn -0.0245 -0.0000 0.9997
vn -0.5758 -0.0000 -0.8176
vn 0.5758 -0.0000 -0.8176
vn 0.0245 -0.0000 0.9997
vn -0.6152 -0.0000 -0.7883
vn 0.5350 -0.0000 -0.8449
vn 0.0736 -0.0000 0.9973
vn -0.6532 -0.0000 -0.7572
vn 0.4929 -0.0000 -0.8701
vn 0.1224 -0.0000 0.9925
vn -0.6895 -0.0000 -0.7242
vn 0.4496 -0.0000 -0.8932
vn 0.1710 -0.0000 0.9853
vn -0.7242 -0.0000 -0.6895
vn 0.4052 -0.0000 -0.9142
vn 0.2191 -0.0000 0.9757
vn -0.7572 -0.0000 -0.6532
vn 0.3599 -0.0000 -0.9330
vn 0.2667 -0.0000 0.9638
vn -0.7883 -0.0000 -0.6152
vn 0.3137 -0.0000 -0.9495
vn 0.3137 -0.0000 0.9495
vn -0.8176 -0.0000 -0.5758
vn 0.2667 -0.0000 -0.9638
vn 0.3599 -0.0000 0.9330
vn -0.8449 -0.0000 -0.5350
vn 0.2191 -0.0000 -0.9757
vn 0.4052 -0.0000 0.9142
vn -0.8701 -0.0000 -0.4929
vn 0.1710 -0.0000 -0.9853
vn 0.4496 -0.0000 0.8932
vn -0.8932 -0.0000 -0.4496
vn 0.1224 -0.0000 -0.9925
vn 0.4929 -0.0000 0.8701
vn -0.9142 -0.0000 -0.4052
vn 0.0736 -0.0000 -0.9973
vn 0.5350 -0.0000 0.8449
vn -0.9330 -0.0000 -0.3599
vn 0.0245 -0.0000 -0.9997
vn 0.5758 -0.0000 0.8176
vn -0.9495 -0.0000 -0.3137
vn 0.6152 -0.0000 0.7883
vn -0.9638 -0.0000 -0.2667
vn 0.6532 -0.0000 0.7572
vn -0.9757 -0.0000 -0.2191
vn 0.6895 -0.0000 0.7242
vn -0.9853 -0.0000 -0.1710
vn 0.7242 -0.0000 0.6895
vn -0.9925 -0.0000 -0.1224
vn 0.7572 -0.0000 0.6532
vn -0.9973 -0.0000 -0.0736
vn 0.7883 -0.0000 0.6152
vn -0.9997 -0.0000 -0.0245
vn 0.8176 -0.0000 0.5758
vn -0.9997 -0.0000 0.0245
vt 0.000000 0.000000
s 0
usemtl Material.001
f 2/1/1 1/1/1 128/1/1 127/1/1 126/1/1 125/1/1 124/1/1 123/1/1 122/1/1 121/1/1 120/1/1 119/1/1 118/1/1 117/1/1 116/1/1 115/1/1 114/1/1 113/1/1 112/1/1 111/1/1 110/1/1 109/1/1 108/1/1 107/1/1 106/1/1 105/1/1 104/1/1 103/1/1 102/1/1 101/1/1 100/1/1 99/1/1 98/1/1 97/1/1 96/1/1 95/1/1 94/1/1 93/1/1 92/1/1 91/1/1 90/1/1 89/1/1 88/1/1 87/1/1 86/1/1 85/1/1 84/1/1 83/1/1 82/1/1 81/1/1 80/1/1 79/1/1 78/1/1 77/1/1 76/1/1 75/1/1 74/1/1 73/1/1 72/1/1 71/1/1 70/1/1 69/1/1 68/1/1 67/1/1 66/1/1 65/1/1 64/1/1 63/1/1 62/1/1 61/1/1 60/1/1 59/1/1 58/1/1 57/1/1 56/1/1 55/1/1 54/1/1 53/1/1 52/1/1 51/1/1 50/1/1 49/1/1 48/1/1 47/1/1 46/1/1 45/1/1 44/1/1 43/1/1 42/1/1 41/1/1 40/1/1 39/1/1 38/1/1 37/1/1 36/1/1 35/1/1 34/1/1 33/1/1 32/1/1 31/1/1 30/1/1 29/1/1 28/1/1 27/1/1 26/1/1 25/1/1 24/1/1 23/1/1 22/1/1 21/1/1 20/1/1 19/1/1 18/1/1 17/1/1 16/1/1 15/1/1 14/1/1 13/1/1 12/1/1 11/1/1 10/1/1 9/1/1 8/1/1 7/1/1 6/1/1 5/1/1 4/1/1 3/1/1
f 130/1/2 131/1/2 132/1/2 133/1/2 134/1/2 135/1/2 136/1/2 137/1/2 138/1/2 139/1/2 140/1/2 141/1/2 142/1/2 143/1/2 144/1/2 145/1/2 146/1/2 147/1/2 148/1/2 149/1/2 150/1/2 151/1/2 152/1/2 153/1/2 154/1/2 155/1/2 156/1/2 157/1/2 158/1/2 159/1/2 160/1/2 161/1/2 162/1/2 163/1/2 164/1/2 165/1/2 166/1/2 167/1/2 168/1/2 169/1/2 170/1/2 171/1/2 172/1/2 173/1/2 174/1/2 175/1/2 176/1/2 177/1/2 178/1/2 179/1/2 180/1/2 181/1/2 182/1/2 183/1/2 184/1/2 185/1/2 186/1/2 187/1/2 188/1/2 189/1/2 190/1/2 191/1/2 192/1/2 193/1/2 194/1/2 195/1/2 196/1/2 197/1/2 198/1/2 199/1/2 200/1/2 201/1/2 202/1/2 203/1/2 204/1/2 205/1/2 206/1/2 207/1/2 208/1/2 209/1/2 210/1/2 211/1/2 212/1/2 213/1/2 214/1/2 215/1/2 216/1/2 217/1/2 218/1/2 219/1/2 220/1/2 221/1/2 222/1/2 223/1/2 224/1/2 225/1/2 226/1/2 227/1/2 228/1/2 229/1/2 230/1/2 231/1/2 232/1/2 233/1/2 234/1/2 235/1/2 236/1/2 237/1/2 238/1/2 239/1/2 240/1/2 241/1/2 242/1/2 243/1/2 244/1/2 245/1/2 246/1/2 247/1/2 248/1/2 249/1/2 250/1/2 251/1/2 252/1/2 253/1/2 254/1/2 255/1/2 256/1/2 129/1/2
f 85/1/3 86/1/3 214/1/3 213/1/3
f 34/1/4 35/1/4 163/1/4 162/1/4
f 86/1/5 87/1/5 215/1/5 214/1/5
f 35/1/6 36/1/6 164/1/6 163/1/6
f 87/1/7 88/1/7 216/1/7 215/1/7
f 36/1/8 37/1/8 165/1/8 164/1/8
f 88/1/9 89/1/9 217/1/9 216/1/9
f 37/1/10 38/1/10 166/1/10 165/1/10
f 89/1/11 90/1/11 218/1/11 217/1/11
f 38/1/12 39/1/12 167/1/12 166/1/12
f 90/1/13 91/1/13 219/1/13 218/1/13
f 39/1/14 40/1/14 168/1/14 167/1/14
f 91/1/15 92/1/15 220/1/15 219/1/15
f 40/1/16 41/1/16 169/1/16 168/1/16
f 92/1/17 93/1/17 221/1/17 220/1/17
f 41/1/18 42/1/18 170/1/18 169/1/18
f 93/1/19 94/1/19 222/1/19 221/1/19
f 42/1/20 43/1/20 171/1/20 170/1/20
f 94/1/21 95/1/21 223/1/21 222/1/21
f 43/1/22 44/1/22 172/1/22 171/1/22
f 95/1/23 96/1/23 224/1/23 223/1/23
f 44/1/24 45/1/24 173/1/24 172/1/24
f 96/1/25 97/1/25 225/1/25 224/1/25
f 45/1/26 46/1/26 174/1/26 173/1/26
f 97/1/27 98/1/27 226/1/27 225/1/27
f 46/1/28 47/1/28 175/1/28 174/1/28
f 98/1/29 99/1/29 227/1/29 226/1/29
f 47/1/30 48/1/30 176/1/30 175/1/30
f 99/1/31 100/1/31 228/1/31 227/1/31
f 48/1/32 49/1/32 177/1/32 176/1/32
f 100/1/33 101/1/33 229/1/33 228/1/33
f 49/1/34 50/1/34 178/1/34 177/1/34
f 101/1/35 102/1/35 230/1/35 229/1/35
f 50/1/36 51/1/36 179/1/36 178/1/36
f 102/1/37 103/1/37 231/1/37 230/1/37
f 51/1/38 52/1/38 180/1/38 179/1/38
f 103/1/39 104/1/39 232/1/39 231/1/39
f 52/1/40 53/1/40 181/1/40 180/1/40
f 1/1/41 2/1/41 130/1/41 129/1/41
f 104/1/42 105/1/42 233/1/42 232/1/42
f 53/1/43 54/1/43 182/1/43 181/1/43
f 2/1/44 3/1/44 131/1/44 130/1/44
f 105/1/45 106/1/45 234/1/45 233/1/45
f 54/1/46 55/1/46 183/1/46 182/1/46
f 3/1/47 4/1/47 132/1/47 131/1/47
f 106/1/48 107/1/48 235/1/48 234/1/48
f 55/1/49 56/1/49 184/1/49 183/1/49
f 4/1/50 5/1/50 133/1/50 132/1/50
f 107/1/51 108/1/51 236/1/51 235/1/51
f 56/1/52 57/1/52 185/1/52 184/1/52
f 5/1/53 6/1/53 134/1/53 133/1/53
f 108/1/54 109/1/54 237/1/54 236/1/54
f 57/1/55 58/1/55 186/1/55 185/1/55
f 6/1/56 7/1/56 135/1/56 134/1/56
f 109/1/57 110/1/57 238/1/57 237/1/57
f 58/1/58 59/1/58 187/1/58 186/1/58
f 7/1/59 8/1/59 136/1/59 135/1/59
f 110/1/60 111/1/60 239/1/60 238/1/60
f 59/1/61 60/1/61 188/1/61 187/1/61
f 8/1/62 9/1/62 137/1/62 136/1/62
f 111/1/63 112/1/63 240/1/63 239/1/63
f 60/1/64 61/1/64 189/1/64 188/1/64
f 9/1/65 10/1/65 138/1/65 137/1/65
f 112/1/66 113/1/66 241/1/66 240/1/66
f 61/1/67 62/1/67 190/1/67 189/1/67
f 10/1/68 11/1/68 139/1/68 138/1/68
f 113/1/69 114/1/69 242/1/69 241/1/69
f 62/1/70 63/1/70 191/1/70 190/1/70
f 11/1/71 12/1/71 140/1/71 139/1/71
f 114/1/72 115/1/72 243/1/72 242/1/72
f 63/1/73 64/1/73 192/1/73 191/1/73
f 12/1/74 13/1/74 141/1/74 140/1/74
f 115/1/75 116/1/75 244/1/75 243/1/75
f 64/1/76 65/1/76 193/1/76 192/1/76
f 13/1/77 14/1/77 142/1/77 141/1/77
f 116/1/78 117/1/78 245/1/78 244/1/78
f 65/1/79 66/1/79 194/1/79 193/1/79
f 14/1/80 15/1/80 143/1/80 142/1/80
f 117/1/81 118/1/81 246/1/81 245/1/81
f 66/1/82 67/1/82 195/1/82 194/1/82
f 15/1/83 16/1/83 144/1/83 143/1/83
f 118/1/84 119/1/84 247/1/84 246/1/84
f 67/1/85 68/1/85 196/1/85 195/1/85
f 16/1/86 17/1/86 145/1/86 144/1/86
f 119/1/87 120/1/87 248/1/87 247/1/87
f 68/1/88 69/1/88 197/1/88 196/1/88
f 17/1/89 18/1/89 146/1/89 145/1/89
f 120/1/90 121/1/90 249/1/90 248/1/90
f 69/1/91 70/1/91 198/1/91 197/1/91
f 18/1/92 19/1/92 147/1/92 146/1/92
f 121/1/93 122/1/93 250/1/93 249/1/93
f 70/1/94 71/1/94 199/1/94 198/1/94
f 19/1/95 20/1/95 148/1/95 147/1/95
f 122/1/96 123/1/96 251/1/96 250/1/96
f 71/1/97 72/1/97 200/1/97 199/1/97
f 20/1/98 21/1/98 149/1/98 148/1/98
f 123/1/99 124/1/99 252/1/99 251/1/99
f 72/1/100 73/1/100 201/1/100 200/1/100
f 21/1/101 22/1/101 150/1/101 149/1/101
f 124/1/102 125/1/102 253/1/102 252/1/102
f 73/1/103 74/1/103 202/1/103 201/1/103
f 22/1/104 23/1/104 151/1/104 150/1/104
f 125/1/105 126/1/105 254/1/105 253/1/105
f 74/1/106 75/1/106 203/1/106 202/1/106
f 23/1/107 24/1/107 152/1/107 151/1/107
f 126/1/108 127/1/108 255/1/108 254/1/108
f 75/1/109 76/1/109 204/1/109 203/1/109
f 24/1/110 25/1/110 153/1/110 152/1/110
f 127/1/111 128/1/111 256/1/111 255/1/111
f 76/1/112 77/1/112 205/1/112 204/1/112
f 25/1/113 26/1/113 154/1/113 153/1/113
f 128/1/114 1/1/114 129/1/114 256/1/114
f 77/1/115 78/1/115 206/1/115 205/1/115
f 26/1/116 27/1/116 155/1/116 154/1/116
f 78/1/117 79/1/117 207/1/117 206/1/117
f 27/1/118 28/1/118 156/1/118 155/1/118
f 79/1/119 80/1/119 208/1/119 207/1/119
f 28/1/120 29/1/120 157/1/120 156/1/120
f 80/1/121 81/1/121 209/1/121 208/1/121
f 29/1/122 30/1/122 158/1/122 157/1/122
f 81/1/123 82/1/123 210/1/123 209/1/123
f 30/1/124 31/1/124 159/1/124 158/1/124
f 82/1/125 83/1/125 211/1/125 210/1/125
f 31/1/126 32/1/126 160/1/126 159/1/126
f 83/1/127 84/1/127 212/1/127 211/1/127
f 32/1/128 33/1/128 161/1/128 160/1/128
f 84/1/129 85/1/129 213/1/129 212/1/129
f 33/1/130 34/1/130 162/1/130 161/1/130
