# Blender 3.6.4
# www.blender.org
mtllib KırmızıKare.mtl
o Plane
v -0.600000 0.000000 0.600000
v 0.600000 0.000000 0.600000
v -0.600000 0.000000 -0.600000
v 0.600000 0.000000 -0.600000
v -0.600000 0.002000 0.600000
v 0.600000 0.002000 0.600000
v -0.600000 0.002000 -0.600000
v 0.600000 0.002000 -0.600000
vn -0.0000 -1.0000 -0.0000
vn -0.0000 1.0000 -0.0000
vn -0.0000 -0.0000 -1.0000
vn -0.0000 -0.0000 1.0000
vn 1.0000 -0.0000 -0.0000
vn -1.0000 -0.0000 -0.0000
vt 0.000000 0.000000
vt 0.000000 1.000000
vt 1.000000 1.000000
vt 1.000000 0.000000
s 0
usemtl Material
f 1/1/1 3/2/1 4/3/1 2/4/1
f 5/1/2 6/4/2 8/3/2 7/2/2
f 4/3/3 3/2/3 7/2/3 8/3/3
f 1/1/4 2/4/4 6/4/4 5/1/4
f 2/4/5 4/3/5 8/3/5 6/4/5
f 3/2/6 1/1/6 5/1/6 7/2/6
