# Blender 3.6.4
# www.blender.org
mtllib havuz.mtl
o Cube
v -25.000000 -1.500000 12.500000
v -25.000000 1.500000 12.500000
v -25.000000 -1.500000 -12.500000
v -25.000000 1.500000 -12.500000
v 25.000000 -1.500000 12.500000
v 25.000000 1.500000 12.500000
v 25.000000 -1.500000 -12.500000
v 25.000000 1.500000 -12.500000
v -30.000002 1.500000 16.500002
v -30.000002 1.500000 -16.500002
v 30.000002 1.500000 16.500002
v 30.000002 1.500000 -16.500002
vn 1.0000 -0.0000 -0.0000
vn -0.0000 -0.0000 1.0000
vn -1.0000 -0.0000 -0.0000
vn -0.0000 -0.0000 -1.0000
vn -0.0000 1.0000 -0.0000
vt 0.859048 0.540000
vt 0.859048 -2.035394
vt 0.550000 -2.035394
vt 0.550001 0.540000
vt 0.292953 3.035394
vt 0.292953 -2.115394
vt -0.016095 -2.115393
vt -0.016094 3.035394
vt 1.168095 0.540000
vt 1.168095 -2.035394
vt 0.859048 0.540000
vt 0.602000 3.035394
vt 0.602000 -2.115394
vt 0.292953 -2.115394
vt 0.292953 3.035394
vt 1.500000 -2.000000
vt -1.000000 -2.000000
vt -1.000000 3.000000
vt 1.500000 3.000000
vt 0.625000 0.750000
vt 0.625000 0.500000
vt 0.625000 0.250000
vt 0.625000 0.000000
vt 0.625000 1.000000
s 0
usemtl Top
f 6/20/5 11/20/5 12/21/5 8/21/5
f 4/22/5 10/22/5 9/23/5 2/23/5
f 2/24/5 9/24/5 11/20/5 6/20/5
f 8/21/5 12/21/5 10/22/5 4/22/5
usemtl Floor
f 1/1/1 3/2/1 4/3/1 2/4/1
f 3/5/2 7/6/2 8/7/2 4/8/2
f 7/9/3 5/10/3 6/2/3 8/11/3
f 5/12/4 1/13/4 2/14/4 6/15/4
f 3/16/5 1/17/5 5/18/5 7/19/5
